<svg xmlns="http://www.w3.org/2000/svg" version="1.1" xmlns:xlink="http://www.w3.org/1999/xlink" xmlns:svgjs="http://svgjs.com/svgjs" width="1460" height="560" preserveAspectRatio="none" viewBox="0 0 1460 560"><g mask="url(&quot;#SvgjsMask1035&quot;)" fill="none"><rect width="1460" height="560" x="0" y="0" fill="#0e2a47"></rect><path d="M 0,210 C 97.4,195.4 292.2,136 487,137 C 681.8,138 779.4,224 974,215 C 1168.6,206 1362.8,116.6 1460,92L1460 560L0 560z" fill="#184a7e"></path><path d="M 0,334 C 48.8,354.2 146.4,425.2 244,435 C 341.6,444.8 390.4,364 488,383 C 585.6,402 634.4,534.4 732,530 C 829.6,525.6 878.4,378.8 976,361 C 1073.6,343.2 1123.2,439.8 1220,441 C 1316.8,442.2 1412,381.8 1460,367L1460 560L0 560z" fill="#2264ab"></path></g><defs><mask id="SvgjsMask1035"><rect width="1460" height="560" fill="#ffffff"></rect></mask></defs></svg>